<?xml version="1.0" standalone="no"?>
<!DOCTYPE svg PUBLIC "-//W3C//DTD SVG 20010904//EN"
 "http://www.w3.org/TR/2001/REC-SVG-20010904/DTD/svg10.dtd">
<svg version="1.0" xmlns="http://www.w3.org/2000/svg"
 width="736.000000pt" height="692.000000pt" viewBox="0 0 736.000000 692.000000"
 preserveAspectRatio="xMidYMid meet">

<g transform="translate(0.000000,692.000000) scale(0.100000,-0.100000)"
fill="#000000" stroke="none">
<path d="M6336 6694 c-4 -124 -14 -287 -22 -362 -7 -75 -14 -176 -14 -224 l0
-86 -66 -54 c-36 -29 -87 -68 -113 -86 -50 -36 -170 -141 -208 -182 -22 -23
-68 -130 -157 -365 -21 -55 -47 -119 -57 -142 -11 -24 -19 -45 -19 -48 0 -3
-39 -103 -86 -222 l-85 -217 -10 -155 c-6 -100 -14 -158 -22 -163 -13 -8 -116
-22 -121 -17 -2 2 2 67 10 144 26 272 36 576 24 697 -12 127 -50 317 -80 403
-11 32 -20 68 -20 79 0 21 93 97 205 167 74 47 147 111 138 120 -5 5 -53 13
-108 18 -270 26 -356 32 -393 30 -37 -3 -47 2 -93 44 -28 26 -55 47 -58 47 -3
0 -17 12 -30 25 -26 28 -41 32 -41 10 0 -8 4 -15 8 -15 14 0 53 -41 47 -50 -3
-4 2 -11 10 -14 12 -4 15 -20 13 -70 -1 -47 -5 -63 -15 -59 -9 4 -13 -6 -13
-35 0 -34 -7 -47 -40 -81 -22 -22 -40 -47 -40 -55 0 -15 -26 -72 -82 -181 -16
-33 -45 -74 -63 -90 -17 -17 -38 -47 -46 -68 -7 -20 -20 -37 -28 -37 -8 0 -32
-18 -52 -40 -34 -37 -70 -56 -53 -28 5 7 3 8 -5 4 -7 -5 -10 -10 -7 -13 3 -3
-7 -22 -23 -42 -15 -20 -26 -41 -24 -48 2 -7 -14 -21 -36 -31 -22 -11 -42 -15
-43 -10 -2 5 -12 0 -22 -11 -19 -21 -19 -21 2 -21 25 0 37 -16 21 -26 -8 -5
-9 -3 -4 6 5 9 4 11 -3 6 -7 -4 -12 -14 -12 -22 0 -8 -4 -14 -10 -14 -20 0
-70 -60 -70 -84 0 -14 -11 -41 -24 -61 -14 -20 -23 -42 -20 -48 2 -7 -6 -24
-18 -37 -21 -22 -22 -32 -20 -140 1 -64 6 -139 11 -166 5 -27 6 -51 3 -54 -13
-9 -42 -68 -42 -83 0 -9 -11 -24 -25 -35 -14 -11 -25 -25 -25 -31 0 -6 -12
-11 -27 -12 -16 0 -37 -2 -48 -4 -11 -3 -98 -6 -193 -8 -149 -3 -188 -1 -285
18 -187 38 -307 65 -350 81 -23 8 -89 21 -147 30 -132 19 -231 6 -267 -34 -13
-14 -23 -30 -23 -37 0 -6 -11 -17 -25 -23 -14 -6 -25 -19 -25 -27 0 -9 -6 -26
-14 -38 -10 -16 -12 -35 -5 -72 20 -120 32 -171 45 -186 8 -8 14 -22 14 -30 0
-8 7 -23 15 -33 8 -11 15 -26 15 -34 0 -9 11 -30 25 -48 14 -18 25 -42 25 -53
0 -13 5 -19 14 -15 7 3 16 -2 19 -10 4 -9 11 -16 18 -16 15 0 77 -65 81 -87 2
-10 11 -17 21 -15 18 3 23 -13 7 -23 -15 -9 -12 -35 4 -35 29 0 33 -46 10 -96
-9 -19 -14 -43 -11 -54 3 -11 1 -23 -4 -26 -5 -3 -9 3 -9 12 0 16 -1 16 -18 1
-10 -10 -24 -17 -30 -17 -7 0 -12 -16 -12 -37 -1 -33 -6 -42 -47 -73 -26 -19
-52 -34 -57 -32 -6 1 -3 -4 7 -11 10 -9 17 -28 17 -48 0 -19 7 -43 15 -53 8
-11 15 -29 15 -39 0 -19 43 -67 60 -67 5 0 17 -13 27 -30 10 -18 35 -37 60
-47 24 -10 43 -24 43 -30 0 -7 8 -13 19 -13 26 0 91 -28 91 -40 0 -5 29 -24
65 -41 45 -22 65 -38 65 -51 0 -10 5 -18 11 -18 7 0 22 -10 34 -23 34 -34 72
-64 90 -71 9 -3 19 -14 22 -24 2 -10 21 -27 41 -37 20 -11 59 -41 85 -67 27
-28 53 -46 59 -42 7 4 8 3 4 -4 -3 -6 3 -16 14 -22 11 -6 18 -15 15 -20 -3 -6
1 -7 9 -4 12 5 16 0 16 -18 0 -20 8 -27 40 -38 22 -7 40 -19 40 -27 0 -7 9
-13 20 -13 11 0 20 -6 20 -13 0 -41 65 -107 105 -107 8 0 15 -6 15 -14 0 -8 9
-17 19 -21 11 -3 22 -14 26 -24 7 -23 89 -111 104 -111 6 0 11 -16 11 -38 0
-21 5 -43 11 -49 8 -8 11 -44 10 -97 -2 -72 0 -86 13 -86 21 0 22 -74 1 -114
-8 -15 -15 -54 -15 -87 0 -32 -4 -61 -10 -64 -5 -3 -10 -23 -10 -45 0 -33 -4
-39 -30 -49 -16 -5 -30 -17 -30 -25 0 -9 -4 -16 -10 -16 -5 0 -10 -6 -10 -14
0 -9 -15 -17 -40 -21 -30 -5 -40 -11 -40 -26 0 -11 -7 -19 -17 -19 -10 0 -26
-14 -35 -31 -10 -17 -22 -28 -27 -25 -12 8 -25 -11 -41 -61 -13 -42 -34 -56
-43 -30 -7 19 -22 -2 -37 -53 -17 -55 -24 -60 -64 -49 -51 15 -73 11 -106 -20
-69 -62 -70 -63 -70 -43 -1 16 -1 16 -14 0 -9 -13 -27 -18 -62 -18 -50 0 -143
-28 -171 -51 -10 -9 -42 -12 -99 -10 -47 1 -90 -2 -97 -7 -18 -14 -100 -22
-117 -12 -13 9 -13 10 0 11 22 1 -81 28 -109 29 -23 0 -155 61 -216 100 -66
42 -97 52 -192 65 -18 2 -45 -2 -60 -10 -15 -8 -35 -15 -43 -15 -10 0 -16 -11
-17 -32 -3 -34 -23 -65 -23 -35 0 9 -4 17 -10 17 -6 0 -10 -40 -10 -100 0 -64
-4 -100 -11 -100 -12 0 -10 -168 3 -176 4 -3 8 -13 8 -23 0 -10 18 -37 40 -61
22 -24 40 -47 40 -52 0 -4 3 -8 8 -8 10 -1 38 -40 46 -66 6 -19 2 -22 -41 -29
-26 -4 -63 -13 -82 -21 -41 -17 -101 -15 -101 3 0 34 -105 92 -142 78 -25 -10
-48 -62 -48 -110 0 -95 59 -145 147 -124 54 12 63 11 57 -6 -6 -14 6 -19 43
-18 7 0 12 -2 11 -6 -6 -22 18 -51 55 -65 52 -20 106 -21 149 -2 18 8 47 20
63 27 43 18 106 20 129 3 31 -21 93 -17 153 12 30 14 57 23 59 21 8 -8 -152
-165 -175 -172 -12 -3 -21 -10 -21 -15 0 -5 -6 -7 -14 -4 -9 3 -17 -3 -21 -16
-4 -11 -12 -20 -18 -19 -12 2 -31 -4 -82 -26 -46 -20 -129 -37 -148 -29 -10 3
-17 1 -17 -5 0 -8 241 -11 871 -11 l870 0 -21 29 c-11 16 -30 31 -43 33 -15 2
-21 9 -19 21 2 10 -3 17 -13 17 -9 0 -23 7 -31 15 -9 8 -11 15 -5 15 6 0 11
14 11 30 0 31 -13 37 -40 20 -12 -7 -12 -12 -2 -22 18 -18 15 -27 -8 -21 -11
3 -20 11 -20 18 0 7 -8 12 -17 11 -12 -1 -19 7 -22 24 l-3 25 -12 -29 c-10
-25 -14 -27 -26 -15 -8 8 -36 24 -61 37 -26 12 -54 34 -63 47 -16 25 -46 34
-46 15 0 -5 5 -10 10 -10 6 0 10 -7 10 -15 0 -8 -7 -15 -15 -15 -21 0 -19 -28
3 -33 9 -2 3 -4 -14 -3 -19 1 -30 6 -27 12 2 6 -3 14 -11 17 -9 4 -16 13 -16
21 0 13 -27 31 -42 28 -4 -1 -4 6 -1 15 5 11 8 13 11 4 3 -8 8 -7 17 6 13 17
15 17 32 0 10 -10 13 -17 5 -17 -7 0 -12 5 -12 11 0 5 -5 7 -11 3 -8 -5 -6
-10 5 -16 9 -5 16 -17 16 -26 0 -11 6 -6 15 12 19 37 4 86 -34 109 l-26 16 26
1 c15 0 29 -7 33 -15 3 -8 12 -12 21 -9 9 4 25 -2 35 -11 19 -17 20 -17 20 1
1 17 2 17 13 3 16 -21 54 -33 62 -19 3 6 -4 10 -17 11 -13 0 -17 3 -10 6 17 7
15 23 -4 23 -8 0 -12 5 -9 10 8 14 21 13 37 -3 7 -7 31 -17 53 -22 35 -9 40
-14 37 -36 -2 -22 3 -26 43 -37 40 -10 46 -16 52 -45 4 -17 7 -34 6 -38 -1 -3
14 -6 32 -7 27 -2 33 1 29 13 -9 23 26 32 42 10 8 -10 17 -16 20 -12 4 3 13
-1 22 -9 12 -12 17 -13 23 -3 4 7 6 16 3 21 -2 4 4 12 14 17 16 8 65 9 186 2
14 -1 16 -4 7 -14 -33 -40 131 -58 184 -21 17 12 43 24 58 28 16 4 38 16 50
26 22 21 86 26 137 11 18 -6 37 -1 70 17 69 39 133 85 149 106 8 11 23 28 33
38 10 10 18 22 18 26 0 5 15 16 33 26 17 9 57 31 87 48 68 38 197 88 228 88
13 0 33 5 45 12 12 7 32 11 45 9 13 -1 33 4 45 12 12 7 42 17 67 21 61 10 73
12 90 19 21 8 141 39 160 41 9 1 22 6 30 11 8 5 38 13 65 17 96 13 245 56 245
70 0 4 6 5 14 2 8 -3 23 -1 34 5 11 6 46 13 78 16 37 3 61 11 67 20 4 9 13 13
18 9 5 -3 17 0 25 7 11 9 20 9 37 1 38 -18 65 -23 72 -12 3 5 -1 10 -10 10
-11 0 -15 5 -11 15 3 8 1 15 -4 15 -6 0 -10 6 -10 14 0 16 30 28 78 31 18 1
38 7 44 13 7 7 21 12 31 12 13 0 17 5 13 15 -3 10 1 15 12 16 42 1 76 9 85 18
6 6 19 11 29 11 9 0 22 8 27 18 7 14 18 18 40 14 26 -4 31 -1 31 17 0 14 6 21
19 21 11 0 23 5 26 10 3 6 15 10 26 10 10 0 19 5 19 10 0 6 20 10 45 10 25 0
45 5 45 10 0 18 111 12 132 -7 17 -15 19 -15 33 3 8 11 15 14 15 7 0 -19 17
-16 40 7 20 20 20 33 20 714 l0 694 -31 6 c-52 10 -61 8 -54 -14 7 -22 -13
-28 -32 -9 -7 7 -17 8 -25 3 -7 -5 -24 -7 -37 -5 -16 2 -22 -1 -19 -11 3 -7
13 -12 22 -12 9 1 16 -3 16 -10 0 -6 -10 -12 -22 -13 -76 -8 -114 -17 -122
-30 -9 -16 -70 -10 -93 9 -10 8 -13 5 -13 -10 0 -16 -4 -20 -16 -15 -10 4 -22
-1 -29 -10 -12 -16 -72 -26 -175 -31 -19 0 -40 -4 -46 -8 -6 -4 -35 -10 -65
-13 -29 -4 -59 -11 -66 -16 -6 -6 -40 -12 -75 -14 -69 -3 -90 -7 -98 -16 -9
-11 -62 -20 -55 -10 6 11 -21 4 -40 -9 -21 -15 -127 -1 -165 22 -18 10 -24 10
-27 1 -3 -7 -9 -13 -14 -13 -6 0 -7 5 -4 10 3 6 -1 10 -9 10 -9 0 -16 -5 -16
-11 0 -6 -7 -3 -16 5 -15 16 -59 17 -82 2 -7 -4 -12 -2 -12 4 0 6 7 13 15 16
16 7 13 50 -4 67 -7 7 -9 3 -6 -11 2 -12 0 -22 -6 -22 -5 0 -9 10 -9 23 -1 22
-1 22 -18 2 -17 -20 -46 -22 -67 -4 -7 5 -11 1 -12 -11 -1 -14 4 -17 23 -14
26 5 30 -2 14 -26 -9 -13 -11 -13 -21 0 -8 12 -9 10 -4 -7 5 -18 3 -22 -9 -17
-8 3 -18 20 -22 37 -4 18 -9 26 -11 20 -3 -7 -10 -13 -16 -13 -7 0 -18 -4 -26
-9 -12 -8 -12 -13 1 -33 19 -30 31 -111 15 -101 -7 4 -22 9 -35 11 -21 3 -21
0 13 -53 26 -39 34 -62 30 -78 -4 -15 -3 -18 3 -8 6 8 12 9 16 3 7 -11 -61
-72 -80 -72 -7 0 -27 -14 -45 -31 -24 -22 -34 -27 -40 -17 -6 9 -12 9 -26 -4
-10 -9 -35 -19 -55 -23 -21 -4 -38 -10 -38 -14 0 -8 -96 -31 -130 -31 -14 0
-47 -7 -74 -15 -69 -21 -123 -20 -130 2 -2 10 -6 133 -8 273 -3 232 -1 255 14
258 9 2 29 -3 45 -11 38 -20 115 -29 133 -17 12 8 13 11 1 19 -7 5 -21 6 -31
4 -10 -3 -21 0 -24 6 -4 7 -18 8 -34 4 -24 -6 -26 -5 -14 10 8 9 11 25 7 37
-6 20 -8 20 -25 5 -10 -9 -23 -14 -29 -10 -6 3 -9 0 -6 -7 4 -9 -2 -14 -15
-15 -28 -2 -35 21 -16 49 21 30 22 55 2 38 -20 -16 -31 26 -52 200 -15 125
-16 321 -1 336 3 3 25 -7 49 -23 147 -100 209 -119 322 -103 114 16 189 31
201 40 6 4 27 13 47 19 55 18 81 55 73 104 l-7 38 39 -7 c21 -3 56 -15 78 -24
22 -10 73 -28 113 -40 39 -12 72 -26 72 -31 0 -5 6 -9 14 -9 8 0 26 -14 40
-31 23 -27 25 -36 20 -82 -4 -29 -13 -61 -20 -72 -16 -23 -19 -59 -4 -50 14 9
52 -4 45 -16 -4 -5 4 -9 16 -9 12 0 31 -8 41 -17 14 -12 21 -14 30 -5 13 13
38 -7 38 -31 0 -11 8 -13 38 -7 73 15 82 23 61 61 -9 17 -7 21 8 25 11 3 25
15 32 27 8 12 10 19 6 15 -12 -11 -35 11 -28 28 3 8 16 14 28 14 13 0 27 5 30
10 5 8 12 7 22 -2 13 -10 15 -9 12 7 -3 15 -14 21 -41 23 -44 4 -78 -24 -78
-63 0 -25 -4 -28 -50 -29 -44 -2 -84 67 -74 130 6 43 7 44 25 28 11 -9 19 -12
19 -7 0 18 60 22 69 5 7 -13 12 -12 30 5 21 20 20 53 -1 53 -6 0 -8 -7 -4 -15
7 -19 -18 -20 -34 0 -6 8 -9 19 -6 24 4 5 1 13 -5 16 -6 4 -8 18 -4 32 8 33
-15 26 -32 -9 -7 -14 -19 -30 -25 -36 -11 -9 -73 -16 -103 -13 -10 2 22 24 38
27 4 1 10 2 15 3 4 1 0 5 -7 10 -10 6 -15 25 -14 56 1 37 -2 45 -14 41 -8 -3
-17 -6 -19 -6 -2 0 -4 -9 -4 -20 0 -11 4 -20 9 -20 12 0 2 -37 -14 -50 -9 -8
-15 -8 -20 0 -10 15 -25 12 -25 -6 0 -10 -6 -14 -14 -11 -11 4 -13 1 -9 -10 4
-11 2 -14 -8 -11 -10 3 -14 21 -14 59 0 30 -4 60 -8 67 -10 15 -30 5 -21 -10
4 -6 0 -14 -7 -19 -8 -4 -16 -4 -20 3 -4 7 -15 5 -31 -6 -20 -13 -29 -14 -51
-3 -15 6 -27 15 -27 19 0 12 18 19 25 8 3 -5 10 -10 14 -10 13 0 20 36 10 51
-8 11 -11 11 -20 -3 -5 -10 -20 -17 -32 -16 -12 0 -26 0 -32 -2 -5 -1 -24 -2
-41 -1 -28 1 -31 3 -26 29 3 15 16 41 29 58 12 17 23 34 23 38 0 10 93 125
101 125 4 1 10 -10 13 -24 4 -14 11 -25 17 -25 6 0 8 9 4 22 -6 17 -4 20 10
14 13 -5 16 -2 11 10 -3 8 -6 20 -6 26 0 6 -7 7 -16 4 -12 -5 -11 2 6 32 13
20 33 46 45 58 12 11 25 33 29 49 4 16 15 40 25 54 53 79 91 263 72 349 -13
60 -66 162 -84 162 -4 0 -34 17 -65 39 -73 49 -136 80 -187 91 -60 13 -178 57
-168 63 19 12 136 34 154 30 26 -7 71 5 64 17 -3 6 -23 10 -43 10 -21 0 -48 9
-62 20 -22 17 -23 19 -7 25 20 8 23 43 3 51 -13 5 -20 25 -47 142 -14 58 -8
73 32 73 49 1 99 11 99 20 0 5 -10 10 -22 10 -21 1 -21 2 -3 6 72 15 72 15 50
24 -14 6 -8 7 18 3 24 -4 37 -2 37 5 0 7 29 11 83 12 56 0 75 3 61 9 -12 5
-25 13 -29 19 -3 6 -15 11 -25 11 -27 0 -70 21 -64 31 3 5 20 9 39 9 48 0 53
18 8 26 -21 3 -52 15 -69 25 -28 17 -34 30 -53 105 -11 48 -18 90 -16 94 9 15
170 88 208 95 l39 6 -28 24 -28 24 23 19 24 18 -35 30 c-27 22 -37 39 -42 74
-4 25 -17 55 -29 68 l-22 24 38 31 c20 18 37 37 37 42 1 6 24 26 52 45 28 19
58 43 66 53 9 9 21 17 27 17 6 0 22 11 37 25 15 14 34 25 42 25 9 0 20 9 26
20 6 11 19 20 29 20 10 0 29 8 42 18 13 11 31 20 39 20 49 5 82 17 91 33 8 17
22 19 102 19 51 0 135 -5 187 -10 52 -5 169 -14 260 -20 91 -5 182 -13 203
-16 l37 -6 0 516 0 516 -508 0 -509 0 -7 -226z m-1648 -1721 c5 -10 7 -24 5
-30 -6 -18 -42 -16 -49 2 -15 38 26 63 44 28z m101 -26 c7 -13 23 -24 38 -25
36 -3 76 -45 68 -71 -5 -15 -2 -21 9 -21 10 0 16 -9 16 -24 0 -14 5 -28 10
-31 6 -4 10 -33 9 -65 -1 -33 -6 -57 -10 -54 -5 3 -10 -12 -10 -33 -1 -21 -3
-30 -6 -20 -4 17 -22 24 -24 10 -1 -5 -3 -21 -5 -37 -4 -35 -14 -47 -14 -17 0
12 -4 19 -10 16 -6 -4 -8 -10 -5 -15 3 -5 1 -11 -5 -15 -16 -10 -12 -28 6 -21
9 3 12 2 9 -5 -4 -5 -14 -7 -23 -5 -10 3 -23 2 -31 -3 -9 -6 -21 -5 -33 2 -15
10 -21 9 -28 -3 -6 -10 -10 -11 -10 -3 0 9 -17 12 -55 10 -33 -1 -59 3 -63 9
-4 7 -16 14 -27 16 -16 3 -9 10 31 30 108 56 160 156 152 292 -3 39 -8 79 -12
89 -12 25 9 21 23 -6z m-1488 -598 c76 1 138 -7 197 -25 7 -2 13 -3 15 -3 1 1
19 -6 40 -14 21 -9 44 -14 52 -11 8 4 15 2 15 -4 0 -6 18 -13 40 -17 22 -4 50
-15 63 -25 13 -10 37 -22 53 -25 51 -12 118 -38 136 -53 10 -8 39 -16 65 -18
52 -4 103 -21 103 -35 0 -11 -19 -11 -72 0 -24 6 -72 15 -108 21 -146 24 -368
80 -532 133 -145 48 -178 62 -178 78 0 6 5 7 11 3 7 -4 52 -6 100 -5z m829
-239 c0 -5 -7 -10 -16 -10 -8 0 -12 5 -9 10 3 6 10 10 16 10 5 0 9 -4 9 -10z
m-770 -370 c0 -11 -4 -20 -9 -20 -14 0 -23 18 -16 30 10 17 25 11 25 -10z m55
-10 c3 -5 -3 -10 -14 -10 -12 0 -21 5 -21 10 0 6 6 10 14 10 8 0 18 -4 21 -10z
m-475 -444 c0 -49 -14 -52 -18 -5 -1 22 2 39 8 39 5 0 10 -15 10 -34z m3010
-71 c0 -8 -4 -15 -10 -15 -5 0 -10 7 -10 15 0 8 5 15 10 15 6 0 10 -7 10 -15z
m255 -115 c3 -5 2 -10 -4 -10 -5 0 -13 5 -16 10 -3 6 -2 10 4 10 5 0 13 -4 16
-10z m211 -257 c-10 -10 -19 5 -10 18 6 11 8 11 12 0 2 -7 1 -15 -2 -18z
m-494 -435 c-7 -7 -12 -20 -12 -31 0 -14 -5 -17 -20 -12 -15 5 -20 2 -20 -14
0 -11 5 -23 10 -26 6 -3 10 1 10 9 0 26 29 18 36 -9 7 -26 -5 -50 -13 -27 -6
17 -23 15 -23 -3 0 -31 -44 -2 -47 31 -2 22 58 94 79 94 9 0 9 -3 0 -12z
m-112 -55 c0 -13 -3 -13 -15 -3 -8 7 -12 16 -9 21 8 13 24 1 24 -18z m1520
-1147 c0 -8 -5 -18 -11 -22 -14 -8 -33 11 -25 25 10 16 36 13 36 -3z m-3630
-76 c0 -5 -4 -10 -10 -10 -5 0 -10 5 -10 10 0 6 5 10 10 10 6 0 10 -4 10 -10z
m-169 -558 c-5 -17 -14 -27 -24 -26 -9 1 -24 2 -32 3 -8 0 -15 8 -15 16 0 14
12 19 33 16 4 0 7 3 7 7 0 4 9 8 19 9 16 1 18 -3 12 -25z m49 3 c-7 -8 -16
-15 -21 -15 -5 0 -6 7 -3 15 4 8 13 15 21 15 13 0 13 -3 3 -15z m25 -53 c-3
-3 -11 0 -18 7 -9 10 -8 11 6 5 10 -3 15 -9 12 -12z m-120 -12 c3 -5 -1 -10
-10 -10 -9 0 -13 5 -10 10 3 6 8 10 10 10 2 0 7 -4 10 -10z m165 -1 c0 -5 -5
-7 -10 -4 -6 4 -17 1 -25 -5 -9 -8 -15 -8 -15 -2 0 11 16 20 38 21 6 1 12 -4
12 -10z m-145 -39 c24 5 35 1 52 -18 12 -13 19 -30 16 -38 -4 -10 -9 -9 -24 9
-10 12 -18 19 -19 15 0 -4 -16 0 -35 8 -20 8 -40 12 -45 9 -12 -7 -14 18 -3
29 4 4 12 1 18 -6 6 -9 21 -12 40 -8z m92 4 c-3 -3 -12 -4 -19 -1 -8 3 -5 6 6
6 11 1 17 -2 13 -5z m269 -62 c-9 -9 -37 8 -31 18 5 8 11 7 21 -1 8 -6 12 -14
10 -17z m-365 -13 c5 -11 15 -19 22 -19 19 0 67 -24 67 -33 0 -5 4 -6 9 -2 5
3 12 1 16 -5 3 -5 1 -11 -4 -11 -6 -1 -16 -2 -21 -3 -19 -2 -28 -28 -23 -67 7
-49 -10 -51 -32 -5 -9 19 -25 42 -36 52 -22 19 -25 50 -6 57 8 4 6 6 -4 6 -16
1 -42 45 -32 54 9 9 33 -4 44 -24z m119 17 c0 -3 -4 -8 -10 -11 -5 -3 -10 -1
-10 4 0 6 5 11 10 11 6 0 10 -2 10 -4z m389 -85 c7 -5 10 -14 7 -20 -8 -13
-46 3 -46 19 0 12 20 13 39 1z m-1069 -11 c0 -5 -4 -10 -10 -10 -5 0 -10 5
-10 10 0 6 5 10 10 10 6 0 10 -4 10 -10z m1120 -51 c0 -5 -4 -9 -10 -9 -5 0
-10 7 -10 16 0 8 5 12 10 9 6 -3 10 -10 10 -16z m-418 -64 c2 3 5 -1 5 -9 0
-8 -6 -12 -15 -8 -12 4 -14 0 -9 -18 l6 -23 -21 21 c-18 17 -19 23 -8 37 9 10
16 12 25 5 6 -5 14 -8 17 -5z m52 -96 c4 6 11 11 15 11 9 0 22 -52 15 -59 -6
-7 -84 71 -84 84 1 5 11 -3 24 -19 15 -18 26 -24 30 -17z"/>
<path d="M3530 353 c0 -5 4 -15 10 -23 11 -18 25 -7 17 15 -6 15 -27 21 -27 8z"/>
<path d="M0 5905 c0 -538 1 -574 17 -579 20 -6 245 -23 392 -31 51 -2 96 -7
99 -10 3 -3 0 -16 -6 -30 -9 -20 -8 -27 5 -41 15 -14 32 -16 124 -11 61 4 125
13 147 22 37 15 44 15 89 0 34 -12 64 -15 104 -10 47 5 64 2 99 -16 36 -19 67
-24 191 -30 82 -4 154 -11 161 -16 7 -4 72 -8 143 -8 103 -1 140 -5 180 -20
39 -14 92 -21 235 -27 102 -4 198 -9 214 -10 26 -3 31 1 37 27 4 17 26 82 49
145 23 63 45 126 50 140 8 27 69 175 102 250 46 105 121 244 172 324 31 48 56
89 56 92 0 3 27 36 60 72 33 37 60 72 60 79 0 15 -17 17 -251 38 -102 10 -196
14 -208 10 -12 -3 -36 -2 -54 4 -30 10 -218 28 -672 66 -99 8 -195 17 -214 21
-18 3 -120 12 -225 19 -105 8 -231 19 -281 24 -49 6 -157 15 -240 21 -82 6
-177 15 -210 20 -33 5 -125 14 -205 20 -80 6 -162 12 -182 14 l-38 4 0 -573z
m1102 -660 c0 -5 -5 -11 -11 -13 -6 -2 -11 4 -11 13 0 9 5 15 11 13 6 -2 11
-8 11 -13z"/>
<path d="M3102 5388 c-23 -5 -59 -19 -81 -31 -45 -26 -141 -111 -141 -125 0
-6 -3 -12 -7 -14 -20 -8 -56 -110 -64 -176 -8 -69 -7 -76 18 -115 61 -97 165
-167 292 -197 67 -16 230 -6 277 16 50 24 101 86 118 145 22 73 21 93 -4 86
-23 -6 -45 16 -36 38 3 8 16 15 30 15 32 0 37 9 29 53 -5 32 -11 38 -63 61
-141 63 -317 9 -382 -118 -26 -51 -34 -134 -18 -191 7 -25 11 -47 9 -50 -8 -8
-124 57 -156 87 -91 88 -81 262 23 377 65 72 153 114 242 114 80 0 136 -14
186 -48 53 -36 58 -31 11 10 -74 65 -174 88 -283 63z"/>
<path d="M6245 4860 c3 -5 11 -10 16 -10 6 0 7 5 4 10 -3 6 -11 10 -16 10 -6
0 -7 -4 -4 -10z"/>
<path d="M1485 4602 c-22 -2 -42 -7 -45 -11 -3 -4 -35 -23 -72 -41 -38 -18
-65 -37 -61 -43 3 -5 1 -7 -5 -3 -6 3 -13 2 -16 -3 -3 -4 -24 -11 -47 -15 -28
-5 -39 -11 -36 -20 4 -10 -5 -12 -39 -8 -29 3 -44 1 -44 -7 0 -6 -18 -11 -42
-12 -24 -1 -34 -3 -23 -6 46 -10 51 -13 35 -23 -8 -6 -28 -10 -45 -10 -16 0
-39 -7 -49 -15 -25 -19 -36 -19 -36 0 0 18 -23 19 -50 3 -17 -11 -22 -10 -29
1 -6 9 -18 12 -36 7 -26 -7 -26 -8 -10 -26 16 -18 15 -19 -15 -35 -26 -13 -36
-14 -65 -3 -19 6 -35 16 -35 22 0 5 -9 1 -21 -10 -20 -18 -22 -18 -34 -1 -7
10 -25 17 -46 17 -43 -1 -212 -24 -309 -44 -41 -8 -118 -22 -170 -31 -52 -9
-105 -18 -117 -21 l-23 -4 0 -556 c0 -511 1 -556 16 -550 37 14 165 56 264 86
58 17 134 42 170 55 36 12 112 35 170 50 58 15 125 34 149 41 62 20 98 18 98
-3 0 -22 -35 -63 -54 -63 -7 0 -13 -4 -13 -10 0 -5 -9 -10 -20 -10 -10 0 -23
-6 -27 -14 -12 -20 -142 -64 -268 -91 -141 -30 -160 -35 -337 -85 l-148 -42 0
-54 c0 -30 5 -54 10 -54 6 0 58 16 117 35 73 24 126 35 165 35 53 0 59 -2 68
-25 9 -23 14 -25 77 -25 38 0 88 5 113 11 56 13 186 73 197 92 4 8 20 20 34
28 86 46 110 62 143 94 20 19 42 35 49 35 8 0 24 11 37 25 12 13 26 22 31 20
4 -3 14 3 21 13 7 10 29 25 49 34 19 10 43 26 53 37 15 16 16 23 5 43 -16 30
-98 139 -121 159 -10 9 -15 19 -12 22 4 3 -3 18 -14 34 -32 45 -79 154 -97
223 -25 96 -17 200 21 270 67 125 247 254 436 312 66 21 93 23 283 23 203 0
376 -18 442 -45 32 -13 36 0 22 89 -9 57 -17 81 -28 83 -9 2 -99 0 -201 -4
-252 -12 -249 -12 -274 11 -22 21 -31 22 -141 13z m617 -74 c-8 -8 -15 -8 -28
2 -15 13 -14 15 3 21 23 9 41 -7 25 -23z m-1192 -178 c-19 -13 -30 -13 -30 0
0 6 10 10 23 10 18 0 19 -2 7 -10z m78 -790 c28 -1 -91 -39 -121 -40 -16 0
-37 -4 -47 -10 -13 -7 -21 -6 -29 4 -9 11 -6 15 16 19 16 3 53 12 83 21 30 8
61 12 68 10 8 -2 21 -4 30 -4z"/>
<path d="M6008 4443 c7 -3 16 -2 19 1 4 3 -2 6 -13 5 -11 0 -14 -3 -6 -6z"/>
<path d="M773 4393 c-20 -8 -15 -23 7 -23 11 0 20 7 20 15 0 15 -6 17 -27 8z"/>
<path d="M3768 4363 c6 -2 18 -2 25 0 6 3 1 5 -13 5 -14 0 -19 -2 -12 -5z"/>
<path d="M778 4353 c7 -3 16 -2 19 1 4 3 -2 6 -13 5 -11 0 -14 -3 -6 -6z"/>
<path d="M1760 4207 c-37 -8 -48 -16 -62 -44 -11 -24 -14 -43 -8 -61 4 -15 13
-47 20 -72 28 -107 44 -149 52 -137 4 7 8 -11 8 -40 0 -29 5 -53 10 -53 6 0
10 -33 10 -80 0 -64 -3 -80 -15 -80 -8 0 -15 -6 -15 -13 0 -7 -9 -18 -20 -25
-11 -7 -20 -17 -20 -22 0 -6 -9 -19 -20 -30 -11 -11 -20 -30 -20 -43 0 -20
-53 -97 -72 -105 -5 -2 -8 -10 -8 -18 0 -8 -4 -14 -8 -14 -19 0 -101 -73 -112
-101 -7 -16 -16 -29 -20 -29 -4 0 -11 -16 -14 -35 -6 -29 -11 -35 -34 -36 -21
-1 -23 -2 -7 -6 25 -6 35 -21 35 -50 0 -13 5 -23 10 -23 6 0 10 -4 10 -9 0
-19 85 -103 119 -117 44 -18 125 -18 190 2 29 8 83 21 120 29 66 13 170 52
182 68 3 5 9 -1 12 -12 3 -12 0 -21 -6 -21 -16 -1 54 -59 71 -60 6 0 12 -4 12
-10 0 -5 8 -10 18 -10 22 0 62 40 62 63 0 9 4 19 10 22 25 16 46 165 43 310
-2 107 -28 267 -49 300 -7 11 -16 38 -20 60 -3 22 -10 45 -14 50 -4 6 -15 45
-25 87 -10 43 -22 75 -27 72 -6 -4 -7 12 -3 41 6 39 4 49 -13 66 -12 11 -19
26 -15 34 3 10 0 15 -8 13 -7 -2 -13 4 -14 12 0 8 -10 16 -21 18 -12 2 -32 14
-45 28 -12 13 -32 24 -44 24 -11 0 -25 4 -30 9 -13 12 -136 61 -149 60 -6 -1
-31 -6 -56 -12z"/>
<path d="M6443 4003 c-24 -9 -13 -23 18 -23 20 0 29 4 27 13 -5 13 -26 18 -45
10z"/>
<path d="M6627 3974 c-12 -12 4 -24 34 -24 19 0 29 5 29 15 0 15 -50 22 -63 9z"/>
<path d="M7335 3750 c-12 -13 -25 -18 -38 -14 -16 5 -19 3 -14 -10 5 -12 0
-16 -18 -16 -18 0 -25 -5 -25 -20 0 -16 7 -20 30 -20 35 0 72 32 64 55 -4 10
0 15 10 15 9 0 16 7 16 15 0 20 -3 19 -25 -5z"/>
<path d="M7116 3712 c-8 -13 5 -52 16 -46 5 3 4 11 -2 19 -7 8 -9 19 -5 25 3
5 4 10 1 10 -3 0 -7 -4 -10 -8z"/>
<path d="M7059 3680 c-14 -11 -19 -20 -11 -21 40 -5 47 -3 50 19 4 27 -8 28
-39 2z"/>
<path d="M6887 3670 c3 -12 12 -20 22 -18 24 5 19 33 -6 36 -17 3 -20 -1 -16
-18z"/>
<path d="M6865 3661 c-3 -5 -1 -12 5 -16 5 -3 10 1 10 9 0 18 -6 21 -15 7z"/>
<path d="M6341 3623 c7 -19 7 -29 0 -31 -17 -6 -13 -32 4 -32 21 0 85 42 85
56 0 11 -22 24 -41 24 -5 0 -9 -7 -9 -15 0 -9 -6 -12 -15 -9 -8 4 -15 12 -15
20 0 8 -4 14 -10 14 -6 0 -6 -10 1 -27z"/>
<path d="M6145 3630 c-3 -5 3 -10 14 -10 12 0 21 5 21 10 0 6 -6 10 -14 10 -8
0 -18 -4 -21 -10z"/>
<path d="M6270 3550 c0 -10 -6 -23 -13 -27 -8 -4 -16 -16 -20 -25 -3 -10 -15
-18 -25 -18 -10 0 -22 -3 -26 -7 -9 -9 -34 -14 -73 -14 -23 0 -33 -4 -33 -14
0 -8 8 -15 19 -15 10 0 31 -7 47 -14 15 -8 31 -13 36 -10 4 3 8 -1 8 -9 0 -8
7 -20 15 -27 12 -10 15 -10 15 3 0 8 6 20 14 26 23 19 29 -5 10 -39 -18 -30
-13 -53 7 -33 6 6 18 9 25 6 20 -8 28 24 14 55 -7 15 -17 36 -22 48 -7 15 -5
32 6 59 18 43 21 75 6 75 -5 0 -10 -9 -10 -20z"/>
<path d="M6120 3549 c0 -6 -6 -9 -14 -6 -19 7 -28 -17 -17 -45 9 -23 9 -22 16
5 5 19 11 25 17 19 11 -11 38 -5 38 9 0 4 -9 13 -20 19 -15 8 -20 8 -20 -1z"/>
<path d="M2945 3430 c-3 -5 -1 -10 4 -10 6 0 11 5 11 10 0 6 -2 10 -4 10 -3 0
-8 -4 -11 -10z"/>
<path d="M6081 3388 c-1 -10 -8 -18 -16 -18 -22 0 -18 -17 5 -23 25 -6 29 1
19 33 -4 16 -7 19 -8 8z"/>
<path d="M6149 3354 c-10 -13 -10 -17 1 -24 11 -7 11 -11 1 -23 -15 -19 -1
-30 32 -26 12 2 28 0 35 -4 7 -5 12 -3 12 7 0 9 -7 16 -15 16 -8 0 -15 9 -15
20 0 11 -3 19 -7 19 -22 -4 -32 3 -27 16 8 20 0 19 -17 -1z"/>
<path d="M5990 3341 c0 -6 4 -13 10 -16 6 -3 7 1 4 9 -7 18 -14 21 -14 7z"/>
<path d="M2845 3310 c4 -6 11 -8 16 -5 14 9 11 15 -7 15 -8 0 -12 -5 -9 -10z"/>
<path d="M6354 3255 c-18 -15 -24 -24 -16 -29 14 -8 72 23 72 39 0 18 -27 13
-56 -10z"/>
<path d="M6635 3220 c3 -5 8 -10 11 -10 2 0 4 5 4 10 0 6 -5 10 -11 10 -5 0
-7 -4 -4 -10z"/>
<path d="M6165 3210 c3 -5 13 -10 21 -10 8 0 12 5 9 10 -3 6 -13 10 -21 10 -8
0 -12 -4 -9 -10z"/>
<path d="M6535 3180 c-8 -13 4 -32 16 -25 12 8 12 35 0 35 -6 0 -13 -4 -16
-10z"/>
<path d="M6415 3170 c4 -6 11 -8 16 -5 14 9 11 15 -7 15 -8 0 -12 -5 -9 -10z"/>
<path d="M6585 3140 c-16 -26 24 -41 44 -16 9 11 8 15 -5 20 -22 8 -32 8 -39
-4z"/>
<path d="M6665 3110 c3 -5 11 -10 16 -10 6 0 7 5 4 10 -3 6 -11 10 -16 10 -6
0 -7 -4 -4 -10z"/>
<path d="M6477 3093 c-10 -10 7 -63 20 -63 10 0 14 7 10 20 -3 11 -1 23 4 26
5 3 9 1 9 -4 0 -6 11 -9 25 -8 17 1 25 6 23 16 -2 10 -16 15 -46 16 -23 0 -44
-1 -45 -3z"/>
<path d="M6721 3074 c-6 -13 -17 -24 -26 -24 -8 0 -15 -4 -15 -10 0 -14 -27
-12 -33 3 -3 7 -6 5 -6 -5 -1 -10 -6 -17 -12 -15 -6 1 -14 -4 -17 -12 -3 -10
0 -12 11 -8 9 3 19 2 22 -3 3 -5 11 -7 18 -4 8 3 13 -3 13 -15 0 -14 -7 -19
-24 -18 -15 1 -29 -6 -36 -18 -6 -11 -17 -24 -23 -28 -7 -4 -13 -15 -13 -23 0
-8 -12 -26 -27 -40 l-27 -25 35 5 c134 21 131 20 118 50 -10 22 -8 29 20 63
17 20 31 43 31 49 0 7 4 14 9 16 4 2 11 19 15 39 8 45 -15 61 -33 23z m-65
-149 c-3 -9 -11 -13 -16 -10 -8 5 -7 11 1 21 14 18 24 11 15 -11z"/>
<path d="M6596 3074 c-9 -24 -7 -28 9 -14 17 14 20 30 6 30 -5 0 -12 -7 -15
-16z"/>
<path d="M6099 3021 c7 -11 17 -21 24 -21 8 0 8 3 -1 9 -8 4 -13 12 -12 17 1
5 -4 10 -10 12 -9 3 -9 -1 -1 -17z"/>
<path d="M6172 3010 c0 -14 2 -19 5 -12 2 6 2 18 0 25 -3 6 -5 1 -5 -13z"/>
<path d="M6146 3012 c-2 -4 -1 -14 5 -22 7 -12 9 -10 9 8 0 23 -5 28 -14 14z"/>
<path d="M6873 3001 c10 -12 8 -13 -15 -8 -26 7 -27 6 -22 -23 6 -29 -1 -36
-29 -31 -5 1 -7 -9 -5 -21 2 -18 9 -23 33 -23 17 0 35 -4 42 -8 18 -11 25 10
12 34 -9 18 -7 27 11 51 24 33 21 41 -14 43 -21 0 -23 -2 -13 -14z"/>
<path d="M6956 2995 c4 -8 8 -15 10 -15 2 0 4 7 4 15 0 8 -4 15 -10 15 -5 0
-7 -7 -4 -15z"/>
<path d="M6745 2983 c8 -21 8 -22 6 -45 -1 -11 -7 -15 -21 -11 -12 3 -20 0
-20 -6 0 -7 5 -9 10 -6 6 3 10 -3 10 -14 0 -25 19 -38 31 -20 8 12 11 12 19
-1 7 -12 10 -8 10 16 0 16 -7 39 -15 50 -8 10 -15 27 -15 37 0 9 -5 17 -11 17
-7 0 -8 -7 -4 -17z"/>
<path d="M6980 2971 c0 -6 5 -13 10 -16 6 -3 10 1 10 9 0 9 -4 16 -10 16 -5 0
-10 -4 -10 -9z"/>
<path d="M7027 2963 c-9 -9 -9 -43 1 -43 11 0 32 37 25 44 -8 8 -18 8 -26 -1z"/>
<path d="M6990 2903 c0 -52 19 -61 70 -34 l24 14 -24 9 c-16 6 -26 5 -31 -4
-5 -8 -11 -4 -18 15 -13 35 -21 34 -21 0z"/>
<path d="M7250 2906 c-6 -6 -18 -11 -28 -11 -28 0 -26 -32 3 -37 18 -4 30 1
41 16 11 14 18 17 21 9 3 -7 11 -13 19 -13 20 0 7 23 -20 36 -18 8 -28 8 -36
0z"/>
<path d="M6961 2894 c0 -11 3 -14 6 -6 3 7 2 16 -1 19 -3 4 -6 -2 -5 -13z"/>
<path d="M7146 2893 c-12 -12 -6 -33 9 -33 8 0 15 6 15 14 0 17 -14 28 -24 19z"/>
<path d="M6485 2870 c-3 -5 -1 -10 4 -10 6 0 11 5 11 10 0 6 -2 10 -4 10 -3 0
-8 -4 -11 -10z"/>
<path d="M6135 2856 c-3 -9 -7 -23 -10 -31 -2 -8 0 -15 5 -15 11 0 25 48 16
57 -3 3 -8 -2 -11 -11z"/>
<path d="M7320 2849 c0 -5 5 -7 10 -4 6 3 10 8 10 11 0 2 -4 4 -10 4 -5 0 -10
-5 -10 -11z"/>
<path d="M6060 2790 c0 -12 8 -12 35 0 18 8 17 9 -7 9 -16 1 -28 -3 -28 -9z"/>
<path d="M6275 2780 c3 -5 8 -10 11 -10 2 0 4 5 4 10 0 6 -5 10 -11 10 -5 0
-7 -4 -4 -10z"/>
<path d="M6074 2750 c-4 -16 -10 -30 -15 -30 -5 0 -9 -8 -9 -17 -1 -17 -1 -17
-11 0 -23 39 -43 -3 -26 -55 7 -21 4 -39 -13 -73 -12 -25 -28 -45 -36 -45 -18
0 -18 9 3 32 9 11 11 18 5 18 -7 0 -12 -5 -12 -10 0 -6 -12 -15 -26 -20 -14
-6 -22 -15 -19 -20 4 -6 11 -8 16 -4 6 3 16 -1 22 -9 7 -8 23 -17 35 -20 20
-5 38 9 109 83 47 49 94 92 104 95 19 6 28 55 11 55 -14 0 -43 -36 -35 -43 3
-4 1 -7 -5 -7 -6 0 -20 12 -31 26 -11 14 -25 23 -30 20 -14 -9 -25 14 -12 27
15 15 14 27 -4 27 -9 0 -18 -12 -21 -30z"/>
<path d="M6249 2765 c0 0 -2 -14 -4 -32 l-5 -31 33 11 c63 23 69 52 10 52 -18
0 -33 0 -34 0z"/>
<path d="M5930 2694 c0 -10 31 -36 37 -31 3 3 -2 13 -10 22 -16 15 -27 19 -27
9z"/>
<path d="M1965 2610 c-3 -5 1 -10 9 -10 9 0 16 5 16 10 0 6 -4 10 -9 10 -6 0
-13 -4 -16 -10z"/>
<path d="M5715 2610 c4 -6 -6 -10 -24 -10 -40 0 -61 -9 -61 -27 0 -13 2 -13
17 -2 11 10 14 10 9 2 -4 -7 -2 -13 3 -13 6 0 11 4 11 9 0 4 24 4 52 0 35 -6
56 -5 63 2 7 8 4 9 -12 4 -18 -5 -25 -1 -35 19 -6 14 -15 26 -20 26 -5 0 -6
-4 -3 -10z"/>
<path d="M5838 2583 c-38 -19 -35 -33 7 -33 31 0 35 3 35 25 0 28 -4 29 -42 8z"/>
<path d="M5502 2555 c-18 -19 -28 -36 -22 -40 13 -8 30 2 30 18 0 7 14 18 30
25 33 15 40 32 13 32 -10 -1 -33 -16 -51 -35z"/>
<path d="M5404 2508 c3 -15 26 -23 26 -8 0 6 -4 9 -9 6 -5 -4 -12 -1 -14 4 -3
6 -4 5 -3 -2z"/>
<path d="M5310 2500 c0 -5 7 -10 16 -10 8 0 12 5 9 10 -3 6 -10 10 -16 10 -5
0 -9 -4 -9 -10z"/>
<path d="M5381 2476 c7 -15 15 -23 17 -16 3 7 -3 19 -13 28 -15 16 -16 15 -4
-12z"/>
<path d="M5761 2464 c0 -11 3 -14 6 -6 3 7 2 16 -1 19 -3 4 -6 -2 -5 -13z"/>
<path d="M5550 2444 c-6 -14 -14 -23 -19 -20 -11 7 -23 -22 -15 -35 3 -5 10
-7 15 -3 5 3 22 -1 38 -9 45 -23 55 -8 31 46 -24 53 -36 58 -50 21z"/>
<path d="M5725 2440 c3 -5 11 -10 16 -10 6 0 7 5 4 10 -3 6 -11 10 -16 10 -6
0 -7 -4 -4 -10z"/>
<path d="M5695 2400 c-3 -5 -1 -10 4 -10 6 0 11 5 11 10 0 6 -2 10 -4 10 -3 0
-8 -4 -11 -10z"/>
<path d="M5653 2375 c0 -14 3 -25 8 -25 5 0 9 11 9 25 0 14 -4 25 -9 25 -5 0
-8 -11 -8 -25z"/>
<path d="M1939 2275 c-9 -9 -35 -19 -58 -22 -32 -4 -41 -10 -39 -22 2 -9 10
-15 18 -15 48 4 67 11 83 32 22 27 19 49 -4 27z"/>
<path d="M1683 2259 c-54 -27 -83 -49 -83 -63 0 -15 75 -40 92 -30 7 5 9 -1 6
-20 -5 -23 -1 -27 32 -37 32 -10 41 -9 66 7 l28 19 -34 3 c-48 5 -59 19 -21
27 32 7 44 35 15 35 -8 0 -13 4 -9 9 3 5 0 13 -6 16 -6 4 -8 18 -5 31 6 22 3
24 -21 22 -16 -1 -42 -10 -60 -19z"/>
<path d="M1683 2055 c-7 -8 -9 -16 -5 -19 4 -3 13 4 20 15 14 22 3 25 -15 4z"/>
<path d="M1377 1895 c-21 -8 -45 -11 -54 -8 -11 4 -14 3 -9 -5 4 -7 1 -15 -8
-18 -9 -3 -13 -10 -10 -15 3 -5 -1 -9 -8 -9 -15 0 -43 -39 -34 -47 11 -11 35
7 30 22 -3 8 -1 15 5 15 15 0 14 -37 -1 -43 -7 -2 -10 -7 -7 -11 3 -4 19 -2
35 4 23 9 25 13 14 21 -11 7 -6 9 18 7 17 -1 32 -6 32 -11 0 -4 5 -5 10 -2 6
4 8 11 5 16 -9 13 23 42 39 36 13 -5 36 10 36 24 0 12 -31 39 -43 38 -7 0 -29
-7 -50 -14z"/>
<path d="M910 1827 c0 -17 20 -37 37 -37 11 0 11 4 1 20 -15 24 -38 34 -38 17z"/>
<path d="M1089 1790 c-19 -15 -21 -19 -7 -20 15 0 48 24 48 36 0 10 -20 3 -41
-16z"/>
<path d="M1794 1438 c-98 -84 -198 -172 -223 -195 -24 -24 -46 -43 -48 -43 -6
0 -82 -60 -113 -88 -14 -13 -84 -75 -157 -138 -73 -63 -135 -119 -138 -124 -3
-6 -15 -10 -26 -10 -11 0 -23 -8 -26 -17 -4 -10 -10 -20 -14 -23 -16 -11 -250
-211 -329 -280 -79 -71 -461 -399 -561 -482 l-44 -37 180 2 180 2 3 28 c4 29
-12 37 -22 12 -3 -8 -10 -15 -15 -15 -17 0 0 29 20 35 10 4 19 15 19 25 0 10
5 22 12 26 7 4 8 3 4 -5 -4 -7 -5 -34 -1 -61 6 -43 10 -50 30 -50 14 0 30 11
41 27 l17 28 10 -28 9 -27 149 0 c142 0 149 1 149 20 0 11 -1 20 -3 20 -1 0
-17 -4 -35 -10 -29 -8 -33 -7 -28 6 3 9 6 18 6 20 0 2 7 4 15 4 10 0 15 10 15
33 1 26 2 29 11 15 8 -14 13 -15 28 -6 15 9 22 8 35 -4 9 -9 21 -18 28 -20 10
-4 10 -8 -1 -22 -8 -9 -20 -15 -28 -12 -9 4 -13 -3 -13 -19 0 -24 2 -25 70
-25 l70 0 0 51 c0 36 4 49 13 46 6 -2 12 -15 12 -29 0 -19 4 -24 17 -20 10 2
18 11 18 18 0 8 5 14 10 14 6 0 10 -9 10 -20 0 -22 7 -25 30 -10 18 11 40 -5
40 -31 0 -11 4 -19 9 -19 6 0 9 12 8 27 -2 22 2 28 21 29 12 1 25 -3 28 -7 3
-5 0 -9 -5 -9 -6 0 -11 -9 -11 -19 0 -18 11 -19 237 -20 130 -1 235 0 232 3
-2 2 -44 6 -92 10 -48 3 -91 7 -95 10 -4 2 -29 7 -57 11 -27 3 -54 9 -60 13
-17 13 -86 34 -92 29 -5 -6 -43 23 -80 62 -12 13 -30 48 -40 77 -10 31 -24 56
-34 59 -14 5 -15 11 -6 40 10 35 -2 78 -28 98 -6 4 -2 13 10 23 16 12 17 16 6
23 -8 5 -10 14 -6 21 5 7 8 29 7 49 -2 59 77 187 161 261 20 17 26 30 22 42
-4 10 -11 15 -16 12 -5 -3 -9 2 -9 10 0 9 7 16 15 16 8 0 15 4 15 10 0 5 16
25 35 44 19 20 35 31 35 26 0 -5 5 -21 10 -36 l11 -27 22 21 c32 30 203 116
272 138 33 10 62 21 65 24 3 3 57 5 120 5 l115 0 -4 30 c-1 17 -7 38 -13 48
-13 25 -55 15 -86 -21 l-24 -27 5 28 c5 33 -9 35 -40 5 -23 -22 -33 -12 -10
11 6 6 12 24 12 38 0 21 5 26 32 28 25 2 33 -2 37 -19 4 -12 9 -17 13 -11 5 6
17 10 28 10 11 0 21 8 23 18 4 22 -27 35 -39 16 -7 -11 -9 -11 -9 3 0 9 5 18
12 20 7 3 11 33 12 89 0 98 -10 238 -17 245 -2 3 -85 -64 -183 -148z m138 50
c-7 -7 -12 -8 -12 -2 0 6 3 14 7 17 3 4 9 5 12 2 2 -3 -1 -11 -7 -17z m38 -61
c0 -20 -25 1 -28 24 -2 23 -2 23 13 5 8 -11 15 -24 15 -29z m-80 12 c0 -5 -7
-9 -15 -9 -15 0 -20 12 -9 23 8 8 24 -1 24 -14z m52 -51 c-2 -10 -6 -18 -7
-18 -1 0 -5 8 -7 18 -3 11 0 19 7 19 7 0 10 -8 7 -19z m-26 -25 c-1 -28 -16
-25 -27 4 -6 17 -4 21 10 20 13 -1 18 -8 17 -24z m-30 -41 c-22 -5 -30 3 -21
18 5 8 11 7 22 -2 15 -12 14 -13 -1 -16z m-42 -46 c-3 -12 -15 -31 -27 -43
-16 -18 -17 -25 -8 -37 10 -12 6 -15 -21 -21 -18 -4 -36 -12 -40 -18 -5 -8
-14 -7 -32 1 -21 9 -26 8 -30 -6 -4 -10 -15 -18 -26 -18 -11 0 -20 1 -20 1 0
11 40 75 41 65 0 -9 3 -7 9 5 7 18 8 18 15 -7 8 -30 25 -28 25 2 0 22 32 43
53 34 8 -3 18 -1 22 5 3 7 -2 11 -14 11 -32 0 -33 17 -1 24 22 4 30 11 30 27
0 18 2 19 15 9 10 -8 13 -21 9 -34z m-207 -98 c-3 -8 -6 -5 -6 6 -1 11 2 17 5
13 3 -3 4 -12 1 -19z m173 -78 c0 -5 -7 -10 -16 -10 -8 0 -12 5 -9 10 3 6 10
10 16 10 5 0 9 -4 9 -10z m-777 -607 c-3 -19 -11 -33 -19 -33 -8 0 -14 -7 -14
-15 0 -8 5 -15 10 -15 6 0 10 -9 10 -19 0 -21 15 -37 23 -24 2 5 2 2 0 -6 -2
-8 2 -18 9 -23 9 -7 4 -8 -15 -5 -15 2 -30 0 -33 -4 -8 -14 -24 -10 -24 6 0 8
5 15 10 15 13 0 13 37 1 44 -5 4 -12 0 -15 -6 -2 -7 -4 -2 -3 12 2 29 -23 38
-46 16 -13 -14 -16 -14 -27 0 -11 12 -10 13 5 8 16 -6 17 -3 12 25 l-7 31 23
-20 22 -21 8 25 c9 26 39 42 57 31 5 -3 10 -1 10 6 0 7 2 10 4 8 2 -2 1 -19
-1 -36z m117 24 c0 -2 -9 -12 -20 -22 -17 -16 -20 -16 -20 -2 0 8 8 18 18 20
9 3 18 5 20 6 1 0 2 -1 2 -2z m-294 -27 c20 0 18 -47 -5 -76 -19 -24 -34 -23
-24 2 3 8 1 14 -5 14 -6 0 -13 -6 -15 -12 -4 -10 -6 -10 -6 -1 -1 7 10 24 24
38 14 14 21 25 15 25 -5 0 -10 8 -9 18 0 10 3 12 6 5 2 -7 11 -13 19 -13z m98
-133 c20 -8 21 -27 1 -27 -17 0 -35 31 -34 57 0 15 2 15 9 -3 4 -12 15 -24 24
-27z m206 -5 c0 -35 -36 -61 -45 -32 -7 22 14 60 32 60 7 0 13 -12 13 -28z
m-356 -115 c6 -22 6 -22 25 3 18 22 20 23 26 7 10 -25 -2 -50 -21 -43 -9 3
-22 6 -30 6 -7 0 -20 13 -28 29 -15 27 -14 29 3 24 11 -3 22 -15 25 -26z m-87
1 c-3 -8 -6 -5 -6 6 -1 11 2 17 5 13 3 -3 4 -12 1 -19z m306 4 c4 10 6 9 6 -2
1 -17 -33 -43 -43 -33 -3 4 -6 18 -6 31 0 24 1 24 19 8 15 -13 20 -14 24 -4z
m-303 -72 c0 -5 -2 -10 -4 -10 -3 0 -8 5 -11 10 -3 6 -1 10 4 10 6 0 11 -4 11
-10z m-173 -42 c-3 -8 -6 -5 -6 6 -1 11 2 17 5 13 3 -3 4 -12 1 -19z m218 -23
c0 -23 -18 -44 -37 -45 -5 0 -8 10 -8 23 0 18 2 19 10 7 5 -8 10 -10 11 -5 1
6 2 15 4 20 1 6 3 13 3 18 4 18 18 4 17 -18z m235 3 c0 -16 -3 -19 -11 -11 -6
6 -8 16 -5 22 11 17 16 13 16 -11z m170 2 c0 -13 -5 -18 -15 -14 -8 4 -15 12
-15 20 0 8 7 14 15 14 8 0 15 -9 15 -20z m-710 1 c0 -5 -7 -14 -15 -21 -12
-10 -15 -10 -15 2 0 8 3 18 7 21 9 10 23 9 23 -2z m80 -10 c0 -5 -7 -14 -15
-21 -16 -14 -18 -10 -9 14 6 17 24 22 24 7z m147 -33 c-3 -8 -6 -5 -6 6 -1 11
2 17 5 13 3 -3 4 -12 1 -19z"/>
<path d="M980 495 c-7 -9 -11 -18 -8 -20 7 -8 38 5 38 15 0 17 -18 19 -30 5z"/>
<path d="M840 450 c0 -5 5 -10 10 -10 6 0 10 5 10 10 0 6 -4 10 -10 10 -5 0
-10 -4 -10 -10z"/>
<path d="M107 1574 c-8 -8 1 -24 14 -24 5 0 9 7 9 15 0 15 -12 20 -23 9z"/>
<path d="M1006 1538 c-20 -28 -20 -38 -2 -38 16 0 66 38 66 51 0 18 -49 9 -64
-13z"/>
<path d="M670 1245 c-7 -9 -26 -14 -48 -12 -37 2 -40 -2 -27 -35 4 -11 3 -18
-4 -18 -6 0 -11 6 -11 13 0 13 -39 41 -47 33 -8 -7 7 -46 18 -46 5 0 9 -7 9
-15 0 -20 15 -19 37 3 10 10 35 29 55 42 21 14 38 31 38 38 0 16 -5 15 -20 -3z"/>
<path d="M20 1210 c0 -6 11 -8 28 -4 39 10 40 14 4 14 -18 0 -32 -5 -32 -10z"/>
<path d="M450 1171 c0 -6 5 -13 10 -16 18 -11 10 -25 -15 -25 -13 0 -29 8 -34
18 -9 15 -10 13 -11 -9 0 -15 7 -32 15 -39 10 -9 15 -9 15 -1 0 16 25 14 40
-4 27 -32 40 12 18 60 -11 24 -38 35 -38 16z"/>
<path d="M3745 1170 c-3 -5 -1 -10 4 -10 6 0 11 5 11 10 0 6 -2 10 -4 10 -3 0
-8 -4 -11 -10z"/>
<path d="M526 1154 c-9 -23 -7 -46 3 -40 5 3 9 17 9 31 0 29 -3 31 -12 9z"/>
<path d="M0 1060 c0 -33 4 -60 9 -60 20 0 41 13 41 25 0 8 8 16 19 20 10 3 26
14 36 25 27 30 4 50 -56 50 l-49 0 0 -60z"/>
<path d="M186 1021 c4 -5 -119 -55 -161 -65 -25 -6 -25 -7 -25 -121 0 -113 0
-115 23 -115 23 0 47 17 47 32 0 4 -7 8 -15 8 -8 0 -15 5 -15 11 0 6 13 8 33
5 28 -4 39 1 81 40 40 38 47 50 44 75 -3 16 -1 29 4 29 4 0 8 19 9 43 0 35 2
38 9 20 13 -32 17 -29 12 11 -3 28 -8 34 -27 32 -13 0 -21 -3 -19 -5z m-16
-105 c0 -2 3 -12 7 -22 5 -13 3 -16 -9 -11 -12 4 -15 0 -11 -16 4 -20 3 -20
-10 2 -11 18 -12 28 -3 37 11 13 26 18 26 10z"/>
<path d="M1401 889 c0 -9 -10 -19 -21 -22 -11 -3 -20 -12 -20 -21 0 -20 2 -20
29 3 14 12 21 27 18 38 -4 15 -5 15 -6 2z"/>
<path d="M2030 681 c0 -6 5 -13 10 -16 6 -3 10 1 10 9 0 9 -4 16 -10 16 -5 0
-10 -4 -10 -9z"/>
<path d="M7250 470 c0 -5 5 -10 10 -10 6 0 10 5 10 10 0 6 -4 10 -10 10 -5 0
-10 -4 -10 -10z"/>
<path d="M7320 454 c0 -14 3 -14 15 -4 8 7 15 14 15 16 0 2 -7 4 -15 4 -8 0
-15 -7 -15 -16z"/>
<path d="M7177 443 c-4 -6 2 -18 12 -27 17 -16 19 -16 24 4 3 11 1 20 -4 20
-5 0 -9 -6 -10 -12 0 -7 -4 -4 -8 6 -4 12 -10 15 -14 9z"/>
<path d="M7240 410 c0 -5 4 -10 9 -10 4 0 11 -16 14 -36 5 -28 1 -43 -15 -65
-16 -21 -25 -26 -32 -18 -8 7 -6 13 7 20 22 13 24 51 2 42 -9 -3 -22 2 -30 13
-7 11 -17 16 -21 11 -4 -4 2 -16 14 -27 25 -24 27 -31 10 -48 -9 -9 -9 -12 0
-12 10 0 10 -5 2 -20 -9 -16 -8 -22 5 -26 9 -4 15 -18 15 -36 0 -23 4 -29 15
-24 14 5 14 2 0 -24 -8 -15 -23 -31 -32 -33 -17 -4 -17 -5 0 -6 9 0 17 -8 17
-17 0 -14 -3 -14 -15 -4 -13 11 -15 8 -15 -14 0 -15 5 -36 11 -47 9 -18 8 -19
-9 -8 -11 7 -18 19 -15 27 3 8 0 18 -8 22 -11 7 -9 15 10 40 14 19 20 38 16
48 -6 15 -8 15 -21 -2 -13 -19 -14 -18 -14 12 l0 31 -40 -21 c-22 -12 -50 -32
-61 -45 -21 -21 -21 -24 -6 -55 10 -22 13 -38 6 -49 -5 -10 -9 -20 -9 -22 0
-2 63 -5 140 -6 77 -1 140 1 140 4 0 2 -10 13 -22 25 -12 11 -17 20 -11 20 6
0 18 3 27 6 13 5 16 -1 16 -25 0 -17 4 -31 9 -31 6 0 9 27 9 60 -1 56 -10 77
-21 48 -2 -7 -8 -9 -13 -5 -5 5 1 16 13 27 20 16 22 27 22 114 0 87 -2 96 -19
96 -10 0 -20 -6 -23 -12 -7 -20 -38 24 -32 46 2 11 -3 25 -13 32 -21 16 -32
17 -32 4z m40 -212 c0 -4 -7 -5 -15 -2 -8 4 -15 16 -15 28 1 21 1 21 15 2 8
-11 15 -23 15 -28z m50 28 c0 -2 -7 -7 -16 -10 -8 -3 -12 -2 -9 4 6 10 25 14
25 6z m-78 -148 c-9 -9 -12 -7 -12 12 0 19 3 21 12 12 9 -9 9 -15 0 -24z m58
12 c0 -11 -4 -20 -9 -20 -11 0 -22 26 -14 34 12 12 23 5 23 -14z m-200 -54 c0
-3 -4 -8 -10 -11 -5 -3 -10 -1 -10 4 0 6 5 11 10 11 6 0 10 -2 10 -4z"/>
<path d="M7142 379 c2 -6 8 -10 13 -10 5 0 11 4 13 10 2 6 -4 11 -13 11 -9 0
-15 -5 -13 -11z"/>
<path d="M3857 354 c-3 -3 1 -13 9 -21 8 -9 18 -12 21 -9 4 4 0 13 -8 21 -8 9
-18 13 -22 9z"/>
<path d="M3697 343 c-4 -3 16 -19 45 -35 28 -15 54 -25 57 -22 8 7 -30 35 -39
29 -4 -3 -15 4 -25 15 -19 21 -28 24 -38 13z"/>
<path d="M3887 303 c-12 -12 -7 -22 8 -17 8 4 15 10 15 15 0 11 -14 12 -23 2z"/>
<path d="M3880 209 c0 -5 5 -7 10 -4 6 3 10 8 10 11 0 2 -4 4 -10 4 -5 0 -10
-5 -10 -11z"/>
<path d="M4077 144 c3 -7 9 -14 14 -14 14 0 10 17 -5 23 -10 4 -13 1 -9 -9z"/>
<path d="M6949 84 c-10 -12 -10 -20 -1 -35 16 -25 15 -32 -3 -25 -9 3 -15 0
-15 -9 0 -11 13 -15 50 -15 47 0 50 1 50 26 0 19 -4 25 -15 21 -11 -5 -12 -1
-4 20 11 31 7 39 -11 18 -16 -20 -41 -20 -34 0 8 20 0 19 -17 -1z"/>
<path d="M6810 15 c0 -8 9 -15 20 -15 11 0 20 2 20 5 0 2 -9 9 -20 15 -16 9
-20 8 -20 -5z"/>
<path d="M1095 10 c-3 -5 1 -10 10 -10 9 0 13 5 10 10 -3 6 -8 10 -10 10 -2 0
-7 -4 -10 -10z"/>
<path d="M1180 10 c-13 -8 -12 -10 3 -10 9 0 17 5 17 10 0 12 -1 12 -20 0z"/>
<path d="M6768 3 c7 -3 16 -2 19 1 4 3 -2 6 -13 5 -11 0 -14 -3 -6 -6z"/>
</g>
</svg>
